# xmcd CD database file
#
# Track frame offsets:
#	150
#	15700
#	31027
#	45108
#	58712
#	73101
#	88281
#	103428
#	118773
#	132798
#	147807
#	158644
#	173427
#
# Disc length: 2547 seconds
#
# Revision: 0
# Processed by: cddbd v1.4PL0 Copyright (c) Steve Scherf et al.
# Submitted via: CDex 1.40Release
#
DISCID=a709f10d
DTITLE=Martin Oakes - Gully-Raker
DYEAR=2003
DGENRE=Country
TTITLE0=Cleanskin Cattle
TTITLE1=The Big Runs
TTITLE2=Been there before
TTITLE3=The Bushie
TTITLE4=When a bloke gets married
TTITLE5=Hoorang Colt
TTITLE6=The Bush Dance
TTITLE7=Never get enough rain
TTITLE8=Beef Beef Beef
TTITLE9=Good cattleman
TTITLE10=Sanford Fishing trip
TTITLE11=We're Leaving We're Gone
TTITLE12=Trail of Dreams
EXTD=YEAR: 2003 ID3G: 2
EXTT0=
EXTT1=
EXTT2=
EXTT3=
EXTT4=
EXTT5=
EXTT6=
EXTT7=
EXTT8=
EXTT9=
EXTT10=
EXTT11=
EXTT12=
PLAYORDER=
